<svg xmlns="http://www.w3.org/2000/svg" width="1200" height="700" viewBox="0 0 1200 700">
<rect width="100%" height="100%" fill="#ffffff"/>
<text x="600.0" y="34" text-anchor="middle" font-size="22" font-family="Arial" font-weight="700">MovieGen drift curves (available methods only)</text>
<line x1="90" y1="80" x2="90" y2="620" stroke="#334155" stroke-width="2"/>
<line x1="90" y1="620" x2="1150" y2="620" stroke="#334155" stroke-width="2"/>
<text x="600.0" y="684" text-anchor="middle" font-size="13" font-family="Arial">frame_cap</text>
<text x="24" y="350.0" text-anchor="middle" font-size="13" font-family="Arial" transform="rotate(-90 24,350.0)">imaging_quality</text>
<line x1="90.0" y1="80" x2="90.0" y2="620" stroke="#e5e7eb" stroke-width="1"/>
<line x1="90" y1="620.0" x2="1150" y2="620.0" stroke="#e5e7eb" stroke-width="1"/>
<text x="90.0" y="638" text-anchor="middle" font-size="11" font-family="Arial">50.00</text>
<text x="80" y="624.0" text-anchor="end" font-size="11" font-family="Arial">0.712</text>
<line x1="302.0" y1="80" x2="302.0" y2="620" stroke="#e5e7eb" stroke-width="1"/>
<line x1="90" y1="512.0" x2="1150" y2="512.0" stroke="#e5e7eb" stroke-width="1"/>
<text x="302.0" y="638" text-anchor="middle" font-size="11" font-family="Arial">180.00</text>
<text x="80" y="516.0" text-anchor="end" font-size="11" font-family="Arial">0.717</text>
<line x1="514.0" y1="80" x2="514.0" y2="620" stroke="#e5e7eb" stroke-width="1"/>
<line x1="90" y1="404.0" x2="1150" y2="404.0" stroke="#e5e7eb" stroke-width="1"/>
<text x="514.0" y="638" text-anchor="middle" font-size="11" font-family="Arial">310.00</text>
<text x="80" y="408.0" text-anchor="end" font-size="11" font-family="Arial">0.723</text>
<line x1="726.0" y1="80" x2="726.0" y2="620" stroke="#e5e7eb" stroke-width="1"/>
<line x1="90" y1="296.0" x2="1150" y2="296.0" stroke="#e5e7eb" stroke-width="1"/>
<text x="726.0" y="638" text-anchor="middle" font-size="11" font-family="Arial">440.00</text>
<text x="80" y="300.0" text-anchor="end" font-size="11" font-family="Arial">0.728</text>
<line x1="938.0" y1="80" x2="938.0" y2="620" stroke="#e5e7eb" stroke-width="1"/>
<line x1="90" y1="188.0" x2="1150" y2="188.0" stroke="#e5e7eb" stroke-width="1"/>
<text x="938.0" y="638" text-anchor="middle" font-size="11" font-family="Arial">570.00</text>
<text x="80" y="192.0" text-anchor="end" font-size="11" font-family="Arial">0.734</text>
<line x1="1150.0" y1="80" x2="1150.0" y2="620" stroke="#e5e7eb" stroke-width="1"/>
<line x1="90" y1="80.0" x2="1150" y2="80.0" stroke="#e5e7eb" stroke-width="1"/>
<text x="1150.0" y="638" text-anchor="middle" font-size="11" font-family="Arial">700.00</text>
<text x="80" y="84.0" text-anchor="end" font-size="11" font-family="Arial">0.739</text>
<polyline fill="none" stroke="#0f766e" stroke-width="3" points="90.0,106.0 171.5,100.4 253.1,80.0 334.6,81.4 416.2,81.4 497.7,81.4 579.2,81.4 660.8,81.4 742.3,81.4 823.8,81.4 905.4,81.4 986.9,81.4 1068.5,81.4 1150.0,81.4"/>
<circle cx="90.0" cy="106.0" r="3.5" fill="#0f766e"/>
<circle cx="171.5" cy="100.4" r="3.5" fill="#0f766e"/>
<circle cx="253.1" cy="80.0" r="3.5" fill="#0f766e"/>
<circle cx="334.6" cy="81.4" r="3.5" fill="#0f766e"/>
<circle cx="416.2" cy="81.4" r="3.5" fill="#0f766e"/>
<circle cx="497.7" cy="81.4" r="3.5" fill="#0f766e"/>
<circle cx="579.2" cy="81.4" r="3.5" fill="#0f766e"/>
<circle cx="660.8" cy="81.4" r="3.5" fill="#0f766e"/>
<circle cx="742.3" cy="81.4" r="3.5" fill="#0f766e"/>
<circle cx="823.8" cy="81.4" r="3.5" fill="#0f766e"/>
<circle cx="905.4" cy="81.4" r="3.5" fill="#0f766e"/>
<circle cx="986.9" cy="81.4" r="3.5" fill="#0f766e"/>
<circle cx="1068.5" cy="81.4" r="3.5" fill="#0f766e"/>
<circle cx="1150.0" cy="81.4" r="3.5" fill="#0f766e"/>
<line x1="90" y1="98" x2="108" y2="98" stroke="#0f766e" stroke-width="3"/>
<text x="114" y="102" font-size="12" font-family="Arial">BF16</text>
<polyline fill="none" stroke="#1d4ed8" stroke-width="3" points="90.0,102.9 171.5,100.3 253.1,141.9 334.6,162.6 416.2,162.6 497.7,162.6 579.2,162.6 660.8,162.6 742.3,162.6 823.8,162.6 905.4,162.6 986.9,162.6 1068.5,162.6 1150.0,162.6"/>
<circle cx="90.0" cy="102.9" r="3.5" fill="#1d4ed8"/>
<circle cx="171.5" cy="100.3" r="3.5" fill="#1d4ed8"/>
<circle cx="253.1" cy="141.9" r="3.5" fill="#1d4ed8"/>
<circle cx="334.6" cy="162.6" r="3.5" fill="#1d4ed8"/>
<circle cx="416.2" cy="162.6" r="3.5" fill="#1d4ed8"/>
<circle cx="497.7" cy="162.6" r="3.5" fill="#1d4ed8"/>
<circle cx="579.2" cy="162.6" r="3.5" fill="#1d4ed8"/>
<circle cx="660.8" cy="162.6" r="3.5" fill="#1d4ed8"/>
<circle cx="742.3" cy="162.6" r="3.5" fill="#1d4ed8"/>
<circle cx="823.8" cy="162.6" r="3.5" fill="#1d4ed8"/>
<circle cx="905.4" cy="162.6" r="3.5" fill="#1d4ed8"/>
<circle cx="986.9" cy="162.6" r="3.5" fill="#1d4ed8"/>
<circle cx="1068.5" cy="162.6" r="3.5" fill="#1d4ed8"/>
<circle cx="1150.0" cy="162.6" r="3.5" fill="#1d4ed8"/>
<line x1="340" y1="98" x2="358" y2="98" stroke="#1d4ed8" stroke-width="3"/>
<text x="364" y="102" font-size="12" font-family="Arial">RTN_INT4_REFRESH</text>
<polyline fill="none" stroke="#c2410c" stroke-width="3" points="90.0,410.0 171.5,510.9 253.1,593.7 334.6,620.0 416.2,620.0 497.7,620.0 579.2,620.0 660.8,620.0 742.3,620.0 823.8,620.0 905.4,620.0 986.9,620.0 1068.5,620.0 1150.0,620.0"/>
<circle cx="90.0" cy="410.0" r="3.5" fill="#c2410c"/>
<circle cx="171.5" cy="510.9" r="3.5" fill="#c2410c"/>
<circle cx="253.1" cy="593.7" r="3.5" fill="#c2410c"/>
<circle cx="334.6" cy="620.0" r="3.5" fill="#c2410c"/>
<circle cx="416.2" cy="620.0" r="3.5" fill="#c2410c"/>
<circle cx="497.7" cy="620.0" r="3.5" fill="#c2410c"/>
<circle cx="579.2" cy="620.0" r="3.5" fill="#c2410c"/>
<circle cx="660.8" cy="620.0" r="3.5" fill="#c2410c"/>
<circle cx="742.3" cy="620.0" r="3.5" fill="#c2410c"/>
<circle cx="823.8" cy="620.0" r="3.5" fill="#c2410c"/>
<circle cx="905.4" cy="620.0" r="3.5" fill="#c2410c"/>
<circle cx="986.9" cy="620.0" r="3.5" fill="#c2410c"/>
<circle cx="1068.5" cy="620.0" r="3.5" fill="#c2410c"/>
<circle cx="1150.0" cy="620.0" r="3.5" fill="#c2410c"/>
<line x1="590" y1="98" x2="608" y2="98" stroke="#c2410c" stroke-width="3"/>
<text x="614" y="102" font-size="12" font-family="Arial">KIVI_INT4_REFRESH</text>
<polyline fill="none" stroke="#7c3aed" stroke-width="3" points="90.0,114.8 171.5,119.5 253.1,148.0 334.6,164.2 416.2,164.2 497.7,164.2 579.2,164.2 660.8,164.2 742.3,164.2 823.8,164.2 905.4,164.2 986.9,164.2 1068.5,164.2 1150.0,164.2"/>
<circle cx="90.0" cy="114.8" r="3.5" fill="#7c3aed"/>
<circle cx="171.5" cy="119.5" r="3.5" fill="#7c3aed"/>
<circle cx="253.1" cy="148.0" r="3.5" fill="#7c3aed"/>
<circle cx="334.6" cy="164.2" r="3.5" fill="#7c3aed"/>
<circle cx="416.2" cy="164.2" r="3.5" fill="#7c3aed"/>
<circle cx="497.7" cy="164.2" r="3.5" fill="#7c3aed"/>
<circle cx="579.2" cy="164.2" r="3.5" fill="#7c3aed"/>
<circle cx="660.8" cy="164.2" r="3.5" fill="#7c3aed"/>
<circle cx="742.3" cy="164.2" r="3.5" fill="#7c3aed"/>
<circle cx="823.8" cy="164.2" r="3.5" fill="#7c3aed"/>
<circle cx="905.4" cy="164.2" r="3.5" fill="#7c3aed"/>
<circle cx="986.9" cy="164.2" r="3.5" fill="#7c3aed"/>
<circle cx="1068.5" cy="164.2" r="3.5" fill="#7c3aed"/>
<circle cx="1150.0" cy="164.2" r="3.5" fill="#7c3aed"/>
<line x1="840" y1="98" x2="858" y2="98" stroke="#7c3aed" stroke-width="3"/>
<text x="864" y="102" font-size="12" font-family="Arial">RTN_INT4_RECENT2</text>
<polyline fill="none" stroke="#b45309" stroke-width="3" points="90.0,107.2 171.5,143.7 253.1,247.3 334.6,283.3 416.2,283.3 497.7,283.3 579.2,283.3 660.8,283.3 742.3,283.3 823.8,283.3 905.4,283.3 986.9,283.3 1068.5,283.3 1150.0,283.3"/>
<circle cx="90.0" cy="107.2" r="3.5" fill="#b45309"/>
<circle cx="171.5" cy="143.7" r="3.5" fill="#b45309"/>
<circle cx="253.1" cy="247.3" r="3.5" fill="#b45309"/>
<circle cx="334.6" cy="283.3" r="3.5" fill="#b45309"/>
<circle cx="416.2" cy="283.3" r="3.5" fill="#b45309"/>
<circle cx="497.7" cy="283.3" r="3.5" fill="#b45309"/>
<circle cx="579.2" cy="283.3" r="3.5" fill="#b45309"/>
<circle cx="660.8" cy="283.3" r="3.5" fill="#b45309"/>
<circle cx="742.3" cy="283.3" r="3.5" fill="#b45309"/>
<circle cx="823.8" cy="283.3" r="3.5" fill="#b45309"/>
<circle cx="905.4" cy="283.3" r="3.5" fill="#b45309"/>
<circle cx="986.9" cy="283.3" r="3.5" fill="#b45309"/>
<circle cx="1068.5" cy="283.3" r="3.5" fill="#b45309"/>
<circle cx="1150.0" cy="283.3" r="3.5" fill="#b45309"/>
<line x1="90" y1="118" x2="108" y2="118" stroke="#b45309" stroke-width="3"/>
<text x="114" y="122" font-size="12" font-family="Arial">QUAROT_KV_INT4_RECENT2</text>
</svg>